{"title":"Kung.Fury.2015.SHORT.1080p.WEBRip.x264.AAC2.0-FGT","uid":11982732,"size":812915536,"categoryP":"video","categoryS":"hd___movies","magnet":"?xt=urn:btih:79f3242655cecf3b0731cc5e05d40b6fdfd7dbbd&amp;dn=Kung.Fury.2015.SHORT.1080p.WEBRip.x264.AAC2.0-FGT&amp;tr=udp%3A%2F%2Ftracker.openbittorrent.com%3A80&amp;tr=udp%3A%2F%2Fopen.demonii.com%3A1337&amp;tr=udp%3A%2F%2Ftracker.coppersurfer.tk%3A6969&amp;tr=udp%3A%2F%2Fexodus.desync.com%3A6969","seeders":4,"leechers":0,"uploader":"vickey1992","files":3,"time":1433263928,"description":"Video\nID                                       : 1\nFormat                                   : AVC\nFormat/Info                              : Advanced Video Codec\nFormat profile                           : High@L4\nFormat settings, CABAC                   : Yes\nFormat settings, ReFrames                : 2 frames\nCodec ID                                 : avc1\nCodec ID/Info                            : Advanced Video Coding\nDuration                                 : 31mn 2s\nBit rate                                 : 3 360 Kbps\nWidth                                    : 1 920 pixels\nHeight                                   : 1 080 pixels\nDisplay aspect ratio                     : 16:9\nFrame rate mode                          : Constant\nFrame rate                               : 25.000 fps\nColor space                              : YUV\nChroma subsampling                       : 4:2:0\nBit depth                                : 8 bits\nScan type                                : Progressive\nBits/(Pixel*Frame)                       : 0.065\nStream size                              : 746 MiB (96%)\nTitle                                    : Kung.Fury.2015.SHORT.1080p.WEBRip.x264.AAC2.0-FGT\n\nAudio\nID                                       : 2\nFormat                                   : AAC\nFormat/Info                              : Advanced Audio Codec\nFormat profile                           : LC\nCodec ID                                 : 40\nDuration                                 : 31mn 2s\nBit rate mode                            : Constant\nBit rate                                 : 126 Kbps\nChannel(s)                               : 2 channels\nChannel positions                        : Front: L R\nSampling rate                            : 44.1 KHz\nCompression mode                         : Lossy\nStream size                              : 27.9 MiB (4%)\nTitle                                    : Kung.Fury.2015.SHORT.1080p.WEBRip.x264.AAC2.0-FGT","torrent":{"xt":"urn:btih:79f3242655cecf3b0731cc5e05d40b6fdfd7dbbd","amp;dn":"Kung.Fury.2015.SHORT.1080p.WEBRip.x264.AAC2.0-FGT","amp;tr":["udp%3A%2F%2Ftracker.openbittorrent.com%3A80","udp%3A%2F%2Fopen.demonii.com%3A1337","udp%3A%2F%2Ftracker.coppersurfer.tk%3A6969","udp%3A%2F%2Fexodus.desync.com%3A6969"],"infoHash":"79f3242655cecf3b0731cc5e05d40b6fdfd7dbbd","infoHashBuffer":{"type":"Buffer","data":[121,243,36,38,85,206,207,59,7,49,204,94,5,212,11,111,223,215,219,189]},"announce":[],"urlList":[]}}